<svg xmlns="http://www.w3.org/2000/svg" viewBox="0 0 260 190">
  <rect width="260" height="190" fill="#FFFFFF"/>
  <g>
    <circle cx="130" cy="70" r="60" fill="#000000"/>
    <path d="M130 10a30 30 0 0 0 0 60a30 30 0 0 1 0 60a60 60 0 0 1 0-120z" fill="#FFFFFF"/>
    <circle cx="130" cy="40" r="10" fill="#000000"/>
    <circle cx="130" cy="100" r="10" fill="#FFFFFF"/>
  </g>
  <ellipse cx="130" cy="130" rx="105" ry="45" fill="none" stroke="#000000" stroke-width="3"/>
  <g fill="#2E7D32">
    <rect x="124" y="145" width="12" height="35" rx="6" />
    <path d="M88 150 C 110 135, 118 135, 130 145 C 118 155, 110 160, 88 150 Z"/>
    <path d="M172 150 C 150 135, 142 135, 130 145 C 142 155, 150 160, 172 150 Z"/>
  </g>
</svg>
