<svg xmlns="http://www.w3.org/2000/svg" viewBox="0 0 260 190"><ellipse cx="130" cy="130" rx="105" ry="45" fill="none" stroke="#76a77c" stroke-width="3"/><g transform="translate(130 72)"><circle r="58" fill="#fff" stroke="#111" stroke-width="3"/><path d="M0,-58a58,58 0 0 1 0,116c-21,0-21,-29 0,-29c21,0 21,-29 0,-29c-21,0-21,-29 0,-29z" fill="#000"/><circle cx="0" cy="-29" r="10" fill="#000"/><circle cx="0" cy="29" r="10" fill="#fff"/></g><path d="M130 130 C105 112,75 116,63 142 C93 145,116 143,130 130Z" fill="#2e7d32"/><path d="M130 130 C155 112,185 116,197 142 C167 145,144 143,130 130Z" fill="#2e7d32"/><path d="M130 126 L130 174" stroke="#2e7d32" stroke-width="8" stroke-linecap="round"/></svg>
